<svg viewBox="0 0 16 16" xmlns="http://www.w3.org/2000/svg" width="64" height="64"><defs><clipPath clipPathUnits="userSpaceOnUse" id="a"><path d="M0 32h32V0H0v32z" /></clipPath><clipPath clipPathUnits="userSpaceOnUse" id="b"><path d="M0 32h32V0H0v32z" /></clipPath><clipPath id="c" clipPathUnits="userSpaceOnUse"><path d="M0 32h32V0H0v32z" /></clipPath><clipPath id="d" clipPathUnits="userSpaceOnUse"><path d="M0 32h32V0H0v32z" /></clipPath></defs><g clip-path="url(#a)" transform="matrix(.42931 0 0 -.42931 .39 16.882)"><path d="M26.908 14.156a34.788 34.788 0 00-.767 2.244c.383.582.621.842.734.947.06-.013.125-.03.195-.05a5.825 5.825 0 011.524-.22c.93 0 1.762.337 2.416.983.647.645.99 1.491.99 2.446 0 1.246-.544 2.043-1.007 2.496-.449.44-1.257.961-2.55.961-.77 0-1.508-.18-2.177-.53-.609-.312-1.248-.85-1.999-1.68-.236.452-.496.891-.779 1.317l-.716 1.076-.885-.146c.388.472.775 1.193.775 2.256a3.568 3.568 0 01-1.328 2.806c-.772.631-1.809.938-3.17.938a8.369 8.369 0 01-4.854-1.51c-1.374-.953-2.606-2.418-3.769-4.48a3.998 3.998 0 00-.249-.393c-.09-.01-.232-.02-.442-.02l-1.529.022-1.63-5.559h1.968l-2.115-7.963a122.89 122.89 0 00-.45-1.627 3.63 3.63 0 01-1.456.286c-1.227 0-2.038-.48-2.509-.89C.401 7.223 0 6.358 0 5.428c0-1 .467-1.916 1.318-2.582C2.051 2.277 3.011 2 4.253 2c1.613 0 3.08.418 4.36 1.248 1.227.8 2.287 1.998 3.151 3.564.371.67.737 1.52 1.102 2.526.172-.354.396-.68.691-.96.453-.43 1.254-.945 2.504-.945.743 0 1.455.155 2.11.453.63.288 1.294.788 2.09 1.575.146.144.303.308.472.488.45-.803 1.001-1.416 1.635-1.822.712-.46 1.566-.694 2.54-.694.971 0 1.928.315 2.826.924 1.006.668 1.962 1.717 2.923 3.205l1.151 1.783-3.879 2.188-1.02-1.377z" fill="#f6f6f6" /></g><g clip-path="url(#b)" transform="matrix(.44196 0 0 -.44196 1.433 14.166)"><path d="M32 32l-13-.002V28.35l3.527-4.846-3.66-4.235v-4.267L30 15l2 .002V22h-3.597l1 1.502L28.404 25H32z" fill="#f6f6f6" /></g><g clip-path="url(#c)" transform="matrix(.44196 0 0 -.44196 1.433 14.166)"><path d="M30 29.998V27h-1l-1 1h-4l3-4.498L24 19h4l1 1h1v-3l-9 .002V18l4 5.504L21 29v.998z" fill="#424242" /></g><g clip-path="url(#d)" transform="matrix(.42931 0 0 -.42931 .39 16.882)" class="vs_background"><path d="M16.198 21.598H14.22c.564 2.21 1.31 3.83 2.238 4.854.564.638 1.115.959 1.652.959.11 0 .198-.034.266-.092a.308.308 0 00.102-.237c0-.088-.075-.254-.224-.498-.15-.246-.226-.478-.226-.697 0-.305.118-.566.355-.787.237-.22.537-.328.901-.328.392 0 .72.135.983.4.264.268.396.627.396 1.084 0 .516-.198.934-.594 1.258-.396.324-1.03.486-1.904.486a6.369 6.369 0 01-3.714-1.154c-1.11-.77-2.166-2.043-3.167-3.818-.346-.614-.674-1.006-.982-1.182-.31-.174-.806-.258-1.489-.248l-.45-1.537h1.898L7.474 9.577c-.464-1.723-.778-2.786-.942-3.188a3.818 3.818 0 00-1.078-1.496 1.029 1.029 0 00-.696-.25.291.291 0 00-.192.066l-.068.092c0 .043.068.133.205.27.137.134.205.34.205.62 0 .307-.109.56-.328.764-.219.2-.532.3-.942.3-.492 0-.887-.13-1.188-.391C2.15 6.1 2 5.789 2 5.43c0-.383.181-.72.546-1.004C2.91 4.143 3.478 4 4.253 4c1.228 0 2.318.309 3.27.924.95.619 1.78 1.569 2.49 2.856.71 1.285 1.438 3.359 2.185 6.22l1.597 6.06h1.924l.48 1.538z" /><path d="M25.713 18.984c.347.264.71.395 1.093.395.145 0 .407-.05.785-.15a3.939 3.939 0 011.003-.153c.4 0 .735.135 1.004.4.268.268.402.61.402 1.03 0 .447-.134.8-.402 1.064-.27.262-.654.393-1.155.393-.445 0-.866-.102-1.262-.309-.396-.203-.9-.647-1.51-1.332-.453-.506-1.127-1.395-2.02-2.662-.354 1.566-.963 3-1.83 4.303l-4.763-.786-.095-.498c.354.07.655.104.9.104.474 0 .866-.197 1.174-.59.492-.613 1.175-2.477 2.048-5.592-.683-.883-1.151-1.46-1.406-1.732-.418-.436-.764-.72-1.037-.852a1.59 1.59 0 00-.71-.158c-.2 0-.528.105-.983.316-.31.14-.588.21-.833.21-.464 0-.846-.143-1.146-.434-.301-.287-.451-.656-.451-1.102 0-.42.138-.76.417-1.023.277-.264.652-.393 1.126-.393.455 0 .882.092 1.283.276.4.181.903.574 1.509 1.173.604.598 1.44 1.551 2.505 2.854.409-1.242.764-2.145 1.064-2.709.3-.564.644-.973 1.03-1.22.388-.25.872-.374 1.455-.374.564 0 1.138.196 1.72.59.765.508 1.547 1.381 2.349 2.623l-.493.277c-.545-.736-.951-1.195-1.214-1.378a1.092 1.092 0 00-.615-.17c-.282 0-.56.17-.833.51-.463.578-1.083 2.18-1.856 4.802.69 1.174 1.274 1.94 1.747 2.297" /></g></svg>