<svg viewBox="0 0 16 16" xmlns="http://www.w3.org/2000/svg" width="24" height="24"><defs><clipPath clipPathUnits="userSpaceOnUse" id="e"><path d="M0 32h32V0H0v32z" /></clipPath><clipPath clipPathUnits="userSpaceOnUse" id="f"><path d="M0 32h32V0H0v32z" /></clipPath></defs><path d="M.018.638v15h9v-1h7v-14h-16z" fill="#f6f6f6" /><g clip-path="url(#e)" transform="matrix(.5 0 0 -.5 .018 15.638)" class="vs_background"><path d="M2 28V14h2v.673c-.633.954-1 2.09-1 3.327 0 1.226.369 2.364 1 3.314V22h.537a5.976 5.976 0 008.926 0H28V6H18V4h12v24H2z" /><path d="M9 14c2.207 0 4 1.792 4 4s-1.793 4-4 4a4 4 0 010-8m0-9a.999.999 0 100 2 1 1 0 000-2m0 4l-3 3H2V2h14v10h-4L9 9z" /></g><g clip-path="url(#f)" transform="matrix(.5 0 0 -.5 .018 15.638)"><path d="M4 14h.5c-.187.209-.345.44-.5.673V14zm0 7.314c.161.243.343.47.537.686H4v-.686zm9.463.686A5.968 5.968 0 0015 18c0-1.539-.547-2.938-1.5-4H18V6h10v16H13.463zM9 7a1 1 0 11-.001-1.999A1 1 0 019 7" fill="#f0eff1" /></g></svg>