<svg viewBox="0 0 16 16" xmlns="http://www.w3.org/2000/svg" width="24" height="24"><defs><clipPath clipPathUnits="userSpaceOnUse" id="g"><path d="M0 32h32V0H0v32z" /></clipPath><clipPath clipPathUnits="userSpaceOnUse" id="h"><path d="M0 32h32V0H0v32z" /></clipPath></defs><g transform="matrix(.5 0 0 -.5 .057 14.065)" clip-path="url(#g)"><path d="M8 0v8.01a4.97 4.97 0 00-3-1.011c-2.757 0-5 2.243-5 5s2.243 5 5 5a4.97 4.97 0 003-1.011V24h24V0z" fill="#f6f6f6" /></g><g clip-path="url(#h)" transform="matrix(.5 0 0 -.5 .057 14.065)"><path d="M30 22V2H10v9H7.816A2.991 2.991 0 002 11.999c0 1.656 1.344 3 3 3A2.99 2.99 0 007.815 13H10v9z" fill="#424242" /></g></svg>