<svg viewBox="0 0 16 16" xmlns="http://www.w3.org/2000/svg" width="24" height="24"><defs><clipPath clipPathUnits="userSpaceOnUse" id="i"><path d="M0 32h32V0H0v32z" /></clipPath><clipPath clipPathUnits="userSpaceOnUse" id="j"><path d="M0 32h32V0H0v32z" /></clipPath><clipPath clipPathUnits="userSpaceOnUse" id="k"><path d="M0 32h32V0H0v32z" /></clipPath></defs><g clip-path="url(#i)" transform="matrix(.5 0 0 -.5 .03 16.034)"><path d="M32 23c0 4.963-4.037 9-9 9a8.896 8.896 0 01-5.65-2H5.172L0 24.828v-3.656L3.172 18h12.367a9.01 9.01 0 011.836-2h-2.724A8.9 8.9 0 019 18c-4.963 0-9-4.037-9-9s4.037-9 9-9a8.9 8.9 0 017.461 4h12.367L32 7.172v3.656l-4.45 4.449C30.199 16.847 32 19.704 32 23" fill="#f6f6f6" /></g><g clip-path="url(#j)" transform="matrix(.5 0 0 -.5 .03 16.034)" class="vs_background"><path d="M24 26a2 2 0 100-4 2 2 0 000 4m-7.301-6c1.127-2.358 3.514-4 6.301-4a7 7 0 010 14c-2.787 0-5.174-1.642-6.301-4H16v2h-2l-2-2v2h-2l-2-2v2H6l-4-4v-2l2-2h12.699zM28 8H13.898A5 5 0 004 9a5 5 0 009.898 1H17v2h1l2-2h1v2h1l2-2h1v2h1l2-2V8zm-4 6v-2l-2 2h-2v-2l-2 2h-2v-2h-.699c-1.127 2.357-3.514 4-6.301 4A7 7 0 019 2c2.787 0 5.174 1.643 6.301 4H28l2 2v2l-4 4h-2z" /><path d="M8 12a2 2 0 110-4 2 2 0 010 4" /></g><g clip-path="url(#k)" transform="matrix(.5 0 0 -.5 .03 16.034)"><path d="M8 8a2 2 0 100 4 2 2 0 000-4m18 4h-1v-2h-1l-2 2h-1v-2h-1l-2 2h-1v-2h-3.102A5 5 0 014 9a5 5 0 019.898-1H28v2l-2 2z" fill="#f0eff1" /></g></svg>