<svg viewBox="0 0 16 16" xmlns="http://www.w3.org/2000/svg" width="64" height="64"><path d="M3.66.046L.072 3.632v12.414h16v-12h-8v-.414L4.487.046H3.66z" fill="#f6f6f6" /><path d="M5.073 4.047l2 2v-2l-3-3-3 3v2l2-2v5l-2-2v2l3 3 3-3v-2l-2 2v-5z" fill="#00539c" /><path d="M8.073 5.047v1h5l-5 5-.793-.793-1 1 .793.793h2l5-5v7h-12V11.46l-1-1v4.586h14v-10h-7z" fill="#424242" /><path d="M8.073 6.047V9.46l-.793.793.793.793 5-5h-5z" fill="#f0eff1" /><path d="M9.073 12.047h-2l-.793-.793-2.207 2.207-2-2v2.586h12v-7l-5 5z" fill="#f0eff1" /></svg>