<svg viewBox="0 0 16 16" xmlns="http://www.w3.org/2000/svg" width="64" height="64"><defs><clipPath clipPathUnits="userSpaceOnUse" id="l"><path d="M0 32h32V0H0v32z" /></clipPath><clipPath clipPathUnits="userSpaceOnUse" id="m"><path d="M0 32h32V0H0v32z" /></clipPath><clipPath clipPathUnits="userSpaceOnUse" id="n"><path d="M0 32h32V0H0v32z" /></clipPath></defs><g clip-path="url(#l)" transform="matrix(.64 0 0 -.64 -1.872 18.312)"><path d="M28 28H5V17.975C3.793 17.061 3 15.627 3 14c0-1.455.625-2.803 1.673-3.733L3.799 4.5h3.833l.436.726.472-.726h3.847l-.8 4.5H28v19z" fill="#f6f6f6" /></g><g clip-path="url(#m)" transform="matrix(.64 0 0 -.64 -1.872 18.312)"><path d="M8 12.501a1.5 1.5 0 100 3 1.5 1.5 0 000-3M11 14a3 3 0 11-4.158-2.767L6.125 6.5H6.5L8 9l1.625-2.5H10l-.842 4.733A3.002 3.002 0 0111 14m3 2h-1.424c.14-.318.252-.651.322-1H14v1zM7 26v-7.102a4.923 4.923 0 002 0V19h1v1H9v1h1v1H9v1h1v1h1v-1h1v1h1v-1h1v1h1v-1h1v1h1v-1h1v1h1v-1h1v1h1v-1h1v1h1v-1h1v-1h-1v-1h1v-1h-1v-1h1v-1h-1v-1h1v-1h-1v-1h1v-1h-1v-1h-1v1h-1v-1h-1v1h-1v-1h-1v1h-1v-1h-1v1h-1v-1h-1v1h-1v-1h-.104a4.979 4.979 0 00-.898-2H26v15H7zm4-8.025c.369-.28.695-.606.975-.975H17v1h-6v-.025zM22 22H11v-2h11v2zm0-4h-4v-1h4v1zm-7-3h4v1h-4v-1zm5 1h2v-1h-2v1z" fill="#424242" /></g><g clip-path="url(#n)" transform="matrix(.64 0 0 -.64 -1.872 18.312)"><path d="M22 20H11v2h11v-2zm0-3h-4v1h4v-1zm0-2h-2v1h2v-1zm-3 0h-4v1h4v-1zm5 7v1h-1v1h-1v-1h-1v1h-1v-1h-1v1h-1v-1h-1v1h-1v-1h-1v1h-1v-1h-1v1h-1v-1h-1v1h-1v-1H9v-1h1v-1H9v-1h1v-1H9v-.102a4.944 4.944 0 002-.923V18h6v-1h-5.025c.234-.311.443-.64.601-1H14v-1h-1.102c.067-.323.102-.658.102-1h1v-1h1v1h1v-1h1v1h1v-1h1v1h1v-1h1v1h1v-1h1v1h1v1h-1v1h1v1h-1v1h1v1h-1v1h1v1h-1v1h1zM9.5 14.001a1.5 1.5 0 10-3 0 1.5 1.5 0 003 0" fill="#f0eff1" /></g></svg>