<svg viewBox="0 0 16 16" xmlns="http://www.w3.org/2000/svg" width="64" height="64"><path d="M12.816 12.812h-.533v-9.6h.533v9.6zm-9.067 0h-.533v-9.6h.533v9.6zm8-12.8v1.6H4.283v-1.6H.016v16h4.267V13.88h7.466v2.133h4.267v-16H11.75z" fill="#f6f6f6" /><path d="M10.15 4.812H5.882v1.6h4.266v-1.6zm0 2.667H5.882v1.6h4.266v-1.6zm0 2.667H5.882v1.6h4.266v-1.6zm1.066 2.666h-6.4V2.68h6.4v10.133zM1.083 2.146v12.8h2.133v-1.067H2.15V2.146h1.067V1.079H1.083v1.067zm13.866-1.067v13.867h-2.133v-1.067h1.067V2.146h-1.067V1.079h2.133z" fill="#424242" /><path d="M10.15 10.146H5.882v1.6h4.266v-1.6zm0-2.667H5.882v1.6h4.266v-1.6zm0-1.067H5.882v-1.6h4.266v1.6z" fill="#f0eff1" /></svg>