<svg viewBox="0 0 16 16" xmlns="http://www.w3.org/2000/svg" width="64" height="64"><defs><clipPath clipPathUnits="userSpaceOnUse" id="o"><path d="M0 32h32V0H0v32z" /></clipPath><clipPath clipPathUnits="userSpaceOnUse" id="p"><path d="M0 32h32V0H0v32z" /></clipPath></defs><g clip-path="url(#o)" transform="matrix(.5 0 0 -.5 .073 16.247)"><path d="M32 13.037a7.619 7.619 0 01-.67 1.137l-.6.826H27v4h-5v11H10V19H5v-4H1.269l-.599-.826A7.619 7.619 0 010 13.037V4.853c.168-.345.35-.675.549-.97L1.144 3h6.847l-.772 1h17.562l-.771-1h6.845l.596.882c.199.296.381.626.549.971v8.184z" fill="#f6f6f6" /></g><path d="M12.573 12.247h-1v-1h1v1zm-5.5-9h2v1.5h-2v-1.5zm1.5 9h-1v-1h1v1zm-4 0h-1v-1h1v1zm8-2v-2.5h-4v-2h1.5v-3.5h-4v3.5h1.5v2h-4v2.5h-1v3h3v-3h-1v-1.5h3v1.5h-1v3h3v-3h-1v-1.5h3v1.5h-1v3h3v-3h-1z" fill="#424242" /><g clip-path="url(#p)" transform="matrix(.5 0 0 -.5 .073 16.247)"><path d="M29.587 8.941c0 1.728-.65 2.906-1.587 4.06h1.71c.727-1.003 1.29-2.74 1.29-4.06 0-1.269-.522-2.926-1.207-3.94h-1.715c.89 1.153 1.509 2.516 1.509 3.94M3.921 5H2.207C1.522 6.016 1 7.673 1 8.941c0 1.321.563 3.057 1.29 4.059H4c-.937-1.152-1.587-2.331-1.587-4.059 0-1.423.617-2.787 1.508-3.941" fill="#424242" /></g><path d="M12.573 11.247h-1v1h1v-1zm-4 0h-1v1h1v-1zm-4 0h-1v1h1v-1zm4.5-6.5h-2v-1.5h2v1.5z" fill="#f0eff1" /></svg>