<svg viewBox="0 0 16 16" xmlns="http://www.w3.org/2000/svg" width="24" height="24"><defs><clipPath clipPathUnits="userSpaceOnUse" id="q"><path d="M0 32h32V0H0v32z" /></clipPath><clipPath clipPathUnits="userSpaceOnUse" id="r"><path d="M0 32h32V0H0v32z" /></clipPath><clipPath clipPathUnits="userSpaceOnUse" id="s"><path d="M0 32h32V0H0v32z" /></clipPath></defs><g clip-path="url(#q)" transform="matrix(.57143 0 0 -.57143 -1.237 17.199)"><path d="M8 2C5.492 2 4.194 3.839 4.021 5.661L4 5.723V26c0 2.598 2.061 4 4 4h11.733L28 21.836V6c-.007-1.896-1-3.932-4-3.992V2H8z" fill="#f6f6f6" /></g><g clip-path="url(#r)" transform="matrix(.57143 0 0 -.57143 -1.237 17.199)" class="vs_background"><path d="M19 26v-6h5V6H8v20h11zm-.088 2H8s-2 0-2-2V5.723S6.32 4 8 4h16.111l-.06.007C25.993 4.045 26 6 26 6v15l-7.088 7z" /><path d="M15 9h6v1h-6V9zm-4.248 5l.484-.826c.141-.252.272-.493.403-.735h.019c.131.272.252.514.383.755l.434.806h1.505l-1.465-2.347L14 9.075h-1.576l-.493.887c-.142.241-.262.493-.383.745h-.03c-.121-.262-.252-.504-.373-.745l-.463-.887H9l1.672 2.508L9.04 14h1.712z" /></g><g clip-path="url(#s)" transform="matrix(.57143 0 0 -.57143 -1.237 17.199)"><path d="M21 9h-6v1h6V9zm-8.576.075l-.493.887c-.142.241-.262.493-.383.745h-.03c-.122-.262-.252-.504-.373-.745l-.463-.887H9l1.672 2.508L9.04 14h1.712l.484-.826c.141-.252.272-.493.403-.735h.019c.131.272.252.514.383.755l.434.806h1.504l-1.464-2.347L14 9.075h-1.576zM19 20v6H8V6h16v14h-5z" fill="#f0eff1" /></g></svg>