<svg viewBox="0 0 16 16" xmlns="http://www.w3.org/2000/svg" width="24" height="24"><defs><clipPath clipPathUnits="userSpaceOnUse" id="w"><path d="M0 32h32V0H0v32z" /></clipPath><clipPath clipPathUnits="userSpaceOnUse" id="x"><path d="M0 32h32V0H0v32z" /></clipPath><clipPath clipPathUnits="userSpaceOnUse" id="y"><path d="M0 32h32V0H0v32z" /></clipPath></defs><g clip-path="url(#w)" transform="matrix(.5 0 0 -.5 -.006 16.04)"><path d="M18 32c-6.957 0-14-2.404-14-7v-3.686c-.631-.95-1-2.088-1-3.314 0-1.237.367-2.373 1-3.327V14H0V0h18c6.957 0 14 2.404 14 7v18c0 4.596-7.043 7-14 7" fill="#f6f6f6" /></g><g clip-path="url(#x)" transform="matrix(.5 0 0 -.5 -.006 16.04)" class="vs_background"><path d="M5 18a4 4 0 018 0 4 4 0 01-8 0M9 5a.999.999 0 100 2 1 1 0 000-2m0 4l-3 3H2V2h14v10h-4L9 9z" /><path d="M18 30c-6.627 0-12-2.237-12-5v-1.809A5.96 5.96 0 009 24c-.018 0-.035-.002-.053-.003-.625.4-.947.769-.947 1.003 0 .771 3.438 3 10 3 6.562 0 10-2.229 10-3 0-.771-3.438-3-10-3-1.967 0-3.647.203-5.044.504A5.98 5.98 0 0015 18c0-1.539-.547-2.938-1.5-4H18V2c6.627 0 12 2.237 12 5v18c0 2.763-5.373 5-12 5" /></g><g clip-path="url(#y)" transform="matrix(.5 0 0 -.5 -.006 16.04)"><path d="M18 28c-6.562 0-10-2.229-10-3 0-.234.322-.603.947-1.003.018.001.035.003.053.003a5.97 5.97 0 003.956-1.496C14.353 22.203 16.033 22 18 22c6.562 0 10 2.229 10 3 0 .771-3.438 3-10 3M9 7a1 1 0 11-.001-1.999A1 1 0 019 7" fill="#f0eff1" /></g></svg>