<svg viewBox="0 0 16 16" xmlns="http://www.w3.org/2000/svg" width="24" height="24"><defs><clipPath id="t" clipPathUnits="userSpaceOnUse"><path d="M0 32h32V0H0v32z" /></clipPath><clipPath id="u" clipPathUnits="userSpaceOnUse"><path d="M0 32h32V0H0v32z" /></clipPath><clipPath id="v" clipPathUnits="userSpaceOnUse"><path d="M0 32h32V0H0v32z" /></clipPath></defs><g clip-path="url(#t)" transform="matrix(.5 0 0 -.5 -.09 15.99)"><path d="M16 0C9.043 0 2 2.404 2 7v18c0 4.596 7.043 7 14 7s14-2.404 14-7V7c0-4.596-7.043-7-14-7" fill="#f6f6f6" /></g><g clip-path="url(#u)" transform="matrix(.5 0 0 -.5 -.09 15.99)"><path d="M16 22c-6.562 0-10 2.229-10 3 0 .771 3.438 3 10 3 6.562 0 10-2.229 10-3 0-.771-3.438-3-10-3m0 8c-6.627 0-12-2.237-12-5V7c0-2.763 5.373-5 12-5s12 2.237 12 5v18c0 2.763-5.373 5-12 5" fill="#424242" /></g><g clip-path="url(#v)" transform="matrix(.5 0 0 -.5 -.09 15.99)"><path d="M16 28c-6.562 0-10-2.229-10-3 0-.771 3.438-3 10-3 6.562 0 10 2.229 10 3 0 .771-3.438 3-10 3" fill="#f0eff1" /></g></svg>