<svg viewBox="0 0 16 16" xmlns="http://www.w3.org/2000/svg" width="24" height="24"><defs><clipPath clipPathUnits="userSpaceOnUse" id="z"><path d="M0 32h32V0H0v32z" /></clipPath><clipPath clipPathUnits="userSpaceOnUse" id="aa"><path d="M0 32h32V0H0v32z" /></clipPath><clipPath clipPathUnits="userSpaceOnUse" id="ab"><path d="M0 32h32V0H0v32z" /></clipPath></defs><g clip-path="url(#z)" transform="matrix(.5 0 0 -.5 .07 16.034)"><path d="M18 32c-7.981 0-14-3.439-14-8V10.86c-2.406-.586-4-2.703-4-5.569C0 1.896 1.937.072 5.059.047L13.879 0c.607 0 1.953.034 3.068.894l.966-.163A19.978 19.978 0 0121.17.475c.638 0 1.303.027 1.977.08l.147.011.143.034C28.719 1.81 32 4.646 32 8v16c0 4.561-6.019 8-14 8" fill="#f6f6f6" /></g><g clip-path="url(#aa)" transform="matrix(.5 0 0 -.5 .07 16.034)" class="vs_background"><path d="M17.994 20c-6.104 0-10 2.369-10 4 0 1.631 3.896 4 10 4s10-2.369 10-4c0-1.631-3.896-4-10-4M18 30c-6.627 0-12-2.686-12-6V11.041l8.088.02c2.013 0 4.597-1.062 4.597-5.637 0-1.129-.17-2.012-.442-2.72 1.314-.22 2.885-.302 4.747-.155C27.123 3.496 30 5.578 30 8v16c0 3.314-5.373 6-12 6" /><path d="M11.781 7.24c-2.07 1.047-2.434 1.8-2.434 1.8H5.35c-1.873 0-3.37-1.249-3.37-3.747 0-2.496 1.243-3.267 3.116-3.267l.94-.05-1.06 2.07h-.1c-.625 0-.774.623-.774 1.247 0 .625.15 1.436.774 1.436l4.04.056s1.032-.332 1.657-.956c.625-.624.95-1.116 1.574-.492.625.625.422 1.502-.365 1.901" /><path d="M14.111 8.965l-1.58.05 1.516-2.34h-.19c.625 0 1.25-.624 1.25-1.25 0-.624-.7-1.343-1.324-1.343l-3.76-.217s-1.139.403-1.764 1.027c-.625.624-.949 1.115-1.574.49-.623-.624-.258-1.275.365-1.9 1.25-1.247 2.557-1.46 2.557-1.46h4.25c1.873 0 2.81.907 2.81 3.404 0 2.498-.683 3.539-2.556 3.539" /></g><g clip-path="url(#ab)" transform="matrix(.5 0 0 -.5 .07 16.034)"><path d="M17.994 28c-6.104 0-10-2.369-10-4 0-1.631 3.896-4 10-4s10 2.369 10 4c0 1.631-3.896 4-10 4" fill="#f0eff1" /></g></svg>