<svg viewBox="0 0 16 16" xmlns="http://www.w3.org/2000/svg" width="24" height="24"><defs><clipPath clipPathUnits="userSpaceOnUse" id="ac"><path d="M0 16h16V0H0v16z" /></clipPath><clipPath clipPathUnits="userSpaceOnUse" id="ad"><path d="M0 16h16V0H0v16z" /></clipPath><clipPath clipPathUnits="userSpaceOnUse" id="ae"><path d="M0 16h16V0H0v16z" /></clipPath></defs><g clip-path="url(#ac)" transform="matrix(1 0 0 -1 .033 15.977)"><path d="M15 12V4c0-2.28-3.01-4-7-4-1.907 0-3.585.396-4.823 1.055L2.059 0H0l1.523 2.428A2.954 2.954 0 001.212 3H0v1.236l1 2V12c0 2.28 3.01 4 7 4s7-1.72 7-4" fill="#f6f6f6" /></g><g clip-path="url(#ad)" transform="matrix(1 0 0 -1 .033 15.977)"><path d="M6 8L3 5h3L2 1l1.5 3H1l2 4h3zm1.997 2.125c-2.931 0-4.875 1.129-4.875 1.875 0 .747 1.944 1.875 4.875 1.875s4.875-1.128 4.875-1.875c0-.746-1.944-1.875-4.875-1.875M8 15c-3.313 0-6-1.343-6-3V8.236L2.382 9h6.032l-3-3h3l-4.46-4.211C5.022 1.301 6.439 1 8 1c3.313 0 6 1.343 6 3v8c0 1.657-2.687 3-6 3" fill="#424242" /></g><g clip-path="url(#ae)" transform="matrix(1 0 0 -1 .033 15.977)"><path d="M12.872 12c0-.746-1.944-1.875-4.875-1.875-2.93 0-4.875 1.129-4.875 1.875 0 .747 1.944 1.875 4.875 1.875s4.875-1.128 4.875-1.875" fill="#f0eff1" /></g></svg>