<svg viewBox="0 0 16 16" xmlns="http://www.w3.org/2000/svg" width="24" height="24"><path d="M15.231 13.199H10.66v2.857H.934v-5.703h5.154V.056h9.143V13.2z" fill="#f6f6f6" /><path d="M8.956 14.342h-.571v-2.286h.571v2.286zm-1.142 0H6.1v-2.286h1.714v2.286zm-2.286 0h-.571v-2.286h.571v2.286zm-1.143 0H2.671v-2.286h1.714v2.286zm-2.296.571h7.428v-3.428H2.09v3.428zm1.725-1.143h-.572v-1.142h.572v1.142zm3.428 0h-.57v-1.142h.57v1.142zm5.704-8.57H8.374V3.485h4.572v1.714zm0 2.857H8.374V6.342h4.572v1.714zM7.232 1.2v9.143h1.142V9.199h4.572v1.714h-2.297v1.143h3.44V1.2H7.232z" fill="#424242" /><path d="M8.374 6.342h4.572v1.714H8.374V6.342zm4.572-1.143H8.374V3.485h4.572v1.714zm-4.572 4h4.572v1.714h-2.297v-.571H8.374V9.199zm.572 5.143h-.572v-2.286h.572v2.286zm-4-2.286h.571v2.286h-.571v-2.286zm1.714.572h.572v1.142H6.66v-1.142zm-.571 1.714h1.714v-2.286H6.09v2.286zm-2.857-1.714h.571v1.142h-.571v-1.142zm-.572 1.714h1.714v-2.286H2.66v2.286z" fill="#f0eff1" /></svg>