<svg viewBox="0 0 16 16" xmlns="http://www.w3.org/2000/svg" width="24" height="24"><path d="M4.006 16.042v-3H2.067l-2.06-2.2V2.088L2.068.042H13.77l2.235 2.018v8.81l-2.233 2.172H8.474l-1.982 3H4.006z" fill="#f6f6f6" /><path d="M13.384 1.042h-10.9l-1.478 1.46v7.928l1.477 1.612h2.523v3h.938l1.982-3h5.458l1.622-1.612V2.502zm.622 8.98l-1.032 1.02H7.271l-1.265 2.482v-2.482H2.893l-.887-1.02v-7.11l.887-.87h10.081l1.032.87z" fill="#424242" /><path d="M7.051 2.573l-2.225 4.45v.629h1.712l-1.204 2.42v.626h1.225l4.36-4.36V5.62H8.591l2.328-2.328v-.719H7.051z" fill="#f6f6f6" /><path d="M10.412 3.081H7.365L5.334 7.144h2.023L5.841 10.19h.508l4.063-4.062H7.365l3.047-3.047z" fill="#424242" /></svg>