<svg viewBox="0 0 16 16" xmlns="http://www.w3.org/2000/svg" width="64" height="64"><defs><clipPath clipPathUnits="userSpaceOnUse" id="af"><path d="M0 32h32V0H0v32z" /></clipPath><clipPath clipPathUnits="userSpaceOnUse" id="ag"><path d="M0 32h32V0H0v32z" /></clipPath></defs><g clip-path="url(#af)" transform="matrix(.5 0 0 -.5 -.004 16.092)"><path d="M22 26c-2.262 0-4.324-.779-6-2.045V32l-4-4v4H4v-4l-4 4V20l8-8 4 4c0-.587.071-1.166.176-1.741.037-.212.085-.417.136-.622.033-.137.049-.274.088-.408L6.586 7.414c-1.372-1.371-2.505-4.324 0-6.828.24-.24.48-.416.721-.586h5.382c.379.256.631.492.725.586L19.229 6.4c.134-.039.271-.056.408-.087.205-.051.41-.1.621-.137A9.618 9.618 0 0122 6c5.523 0 10 4.477 10 10 0 5.522-4.477 10-10 10" fill="#f6f6f6" /></g><g clip-path="url(#ag)" transform="matrix(.5 0 0 -.5 -.004 16.092)"><path d="M30 16a8 8 0 00-8-8 7.948 7.948 0 00-3.281.719L12 2s-2-2-4 0 0 4 0 4l6.719 6.719A7.948 7.948 0 0014 16a8 8 0 008 8 7.948 7.948 0 003.281-.719L20 18l4-4 5.281 5.281A7.948 7.948 0 0030 16" fill="#424242" /></g><path d="M3.996 8.092l-3-3v-2l2 2v-4h2v4l2-2v2l-3 3z" fill="#00539c" /></svg>