<svg viewBox="0 0 16 16" xmlns="http://www.w3.org/2000/svg" width="64" height="64"><defs><clipPath id="ah" clipPathUnits="userSpaceOnUse"><path d="M0 32h32V0H0v32z" /></clipPath><clipPath id="ai" clipPathUnits="userSpaceOnUse"><path d="M0 32h32V0H0v32z" /></clipPath></defs><g clip-path="url(#ah)" transform="matrix(.61538 0 0 -.61538 -1.859 18.198)"><path d="M6.545 5C4.557 5 3 6.521 3 8.465v11.914C3 22.376 4.59 24 6.545 24h5.192l2.037 4H26c1 0 3-1.829 3-3.899V8.465C29 6.555 27.308 5 25.228 5H6.545z" fill="#f6f6f6" /></g><g clip-path="url(#ai)" transform="matrix(.61538 0 0 -.61538 -1.859 18.198)"><path d="M16 24h9v-2h-9.961L16 24zm9.398 2H15l-2.037-4H6.545C5.692 22 5 21.274 5 20.379V8.465C5 7.569 5.691 7 6.545 7h18.683C26.081 7 27 7.569 27 8.465v15.636C27 25.138 25.398 26 25.398 26" fill="#dcb67a" /></g><path d="M7.987 3.428h5.539V4.66h-6.13l.591-1.23z" fill="#f0eff1" /></svg>