<svg viewBox="0 0 16 16" xmlns="http://www.w3.org/2000/svg" width="64" height="64"><defs><clipPath clipPathUnits="userSpaceOnUse" id="aj"><path d="M0 32h32V0H0v32z" /></clipPath><clipPath clipPathUnits="userSpaceOnUse" id="ak"><path d="M0 32h32V0H0v32z" /></clipPath><clipPath clipPathUnits="userSpaceOnUse" id="al"><path d="M0 32h32V0H0v32z" /></clipPath></defs><g clip-path="url(#aj)" transform="matrix(.5 0 0 -.5 -.035 15.961)"><path d="M26.828 23.132H14.651a8.9 8.9 0 01-5.65 2c-4.964 0-9-4.037-9-9s4.036-9 9-9a8.9 8.9 0 017.46 4h12.367L32 14.304v3.656l-5.172 5.172z" fill="#f6f6f6" /></g><g clip-path="url(#ak)" transform="matrix(.5 0 0 -.5 -.035 15.961)" class="vs_background"><path d="M28 15H13.898A5 5 0 004 16a5 5 0 009.898 1H17v2h1l2-2h1v2h1l2-2h1v2h1l2-2v-2zm-2 6h-2v-2l-2 2h-2v-2l-2 2h-2v-2h-.699c-1.127 2.358-3.514 4-6.301 4A7 7 0 019 9c2.787 0 5.174 1.642 6.301 4H28l2 2v2l-4 4z" /><path d="M8 19a2 2 0 110-4 2 2 0 010 4" /></g><g clip-path="url(#al)" transform="matrix(.5 0 0 -.5 -.035 15.961)"><path d="M8 15a2 2 0 100 4 2 2 0 000-4m18 4h-1v-2h-1l-2 2h-1v-2h-1l-2 2h-1v-2h-3.102A5 5 0 014 16a5 5 0 019.898-1H28v2l-2 2z" fill="#f0eff1" /></g></svg>