<svg viewBox="0 0 16 16" xmlns="http://www.w3.org/2000/svg" width="24" height="24"><defs><clipPath clipPathUnits="userSpaceOnUse" id="am"><path d="M0 16h16V0H0v16z" /></clipPath><clipPath clipPathUnits="userSpaceOnUse" id="an"><path d="M0 16h16V0H0v16z" /></clipPath></defs><path d="M.562 16.045h14.933v-16H.562v16z" fill="#f6f6f6" /><path d="M13.26 13.912h-9.6V2.179h9.6v11.733zM1.525 1.112v1.067h1.067v1.066H1.526v1.067h1.067v1.067H1.526v1.066h1.067v1.067H1.526v1.067h1.067v1.066H1.526v1.067h1.067v1.067H1.526v1.066h1.067v1.067H1.526v1.067h12.8V1.112h-12.8z" fill="#424242" /><g clip-path="url(#am)" transform="matrix(.41634 0 0 -.41634 4.623 11.412)"><path d="M3 16V0h13v16z" fill="#f6f6f6" /></g><g clip-path="url(#an)" transform="matrix(.41634 0 0 -.41634 4.623 11.412)"><path d="M4 13h11v2H4v-2zm0-4h11v2H4V9z" fill="#424242" /></g><path d="M6.289 9.324h4.58V8.49h-4.58zm.022 1.603h4.58v-.833h-4.58v.833z" fill="#424242" /></svg>