<svg viewBox="0 0 16 16" xmlns="http://www.w3.org/2000/svg" width="24" height="24"><defs><clipPath clipPathUnits="userSpaceOnUse" id="ao"><path d="M0 32h32V0H0v32z" /></clipPath><clipPath clipPathUnits="userSpaceOnUse" id="ap"><path d="M0 32h32V0H0v32z" /></clipPath></defs><g clip-path="url(#ao)" transform="matrix(.5 0 0 -.5 .063 16.083)"><path d="M32 32H6V17.477C2.507 16.24 0 12.917 0 9a9 9 0 019-9 8.97 8.97 0 016.695 3H32v29z" fill="#f6f6f6" /></g><g clip-path="url(#ap)" transform="matrix(.5 0 0 -.5 .063 16.083)"><path d="M17.054 5H30v4H18a8.94 8.94 0 00-.946-4m.423 7H30v4H14.652a9.002 9.002 0 002.825-4M8 26h22v4H8v-4zm0-7h22v4H8v-4zm6-11H4v2h10V8zm-5 8c-3.865 0-7-3.135-7-7s3.135-7 7-7 7 3.135 7 7-3.135 7-7 7" fill="#424242" /></g><path d="M7.063 12.083h-5v-1h5v1z" fill="#f0eff1" /></svg>