<svg viewBox="0 0 16 16" xmlns="http://www.w3.org/2000/svg" width="24" height="24"><defs><clipPath clipPathUnits="userSpaceOnUse" id="as"><path d="M0 32h32V0H0v32z" /></clipPath><clipPath clipPathUnits="userSpaceOnUse" id="at"><path d="M0 32h32V0H0v32z" /></clipPath></defs><g clip-path="url(#as)" transform="matrix(.5 0 0 -.5 .034 15.929)"><path d="M20 11.828V14h2.172L20 11.828zM32 32H12V18H0V0h20v2h3a5.009 5.009 0 014.746 3.426L30 3.172v8.656L27.828 14H32v18z" fill="#f6f6f6" /></g><path d="M11.034 4.929l-3-3h6l-3 3zm3 2h-6V3.426l2 2h2l2-2V6.93zm-9 5l-3-3h6l-3 3zm3 2h-6v-3.5l2 2h2l2-2v3.5zm-1-13v7h-6v7h8v-7h6v-7h-8z" fill="#424242" /><g clip-path="url(#at)" transform="matrix(.5 0 0 -.5 .034 15.929)"><path d="M22 11V8l2 2V7c0-.551-.449-1-1-1h-3V4h3c1.652 0 3 1.346 3 3v3l2-2v3l-3 3-3-3z" fill="#424242" /></g><path d="M10.034 5.429l-2-2v3.5h6v-3.5l-2 2h-2z" fill="#f0eff1" /><path d="M14.034 1.929h-6l3 3 3-3zm-10 10.5l-2-2v3.5h6v-3.5l-2 2h-2z" fill="#f0eff1" /><path d="M8.034 8.929h-6l3 3 3-3z" fill="#f0eff1" /></svg>