<svg viewBox="0 0 16 16" xmlns="http://www.w3.org/2000/svg" width="24" height="24"><defs><clipPath clipPathUnits="userSpaceOnUse" id="au"><path d="M0 32h32V0H0v32z" /></clipPath><clipPath clipPathUnits="userSpaceOnUse" id="av"><path d="M0 32h32V0H0v32z" /></clipPath><clipPath clipPathUnits="userSpaceOnUse" id="aw"><path d="M0 32h32V0H0v32z" /></clipPath></defs><g clip-path="url(#au)" transform="matrix(.5 0 0 -.5 -.018 16.04)"><path d="M27 25.403l-1-.667v1.334L17.105 32h-4.21L1 24.07V11.93l2.362-1.576-.718-2.324h1.075l-.744-2.654-.111.002c-.921 0-1.546-.36-1.902-.658C.342 4.207 0 3.494 0 2.714c0-.83.403-1.6 1.099-2.109C1.649.197 2.333 0 3.188 0 4.211 0 5.145.256 5.96.757c.782.481 1.454 1.196 1.999 2.13.046.078.091.16.136.245a2.72 2.72 0 01.186-.186c.359-.32.985-.706 1.931-.706.512 0 1.005.1 1.487.31.401.176.801.452 1.241.853.234-.274.498-.503.791-.683.519-.316 1.125-.478 1.802-.479l1.862-1.24h1.21L32 9.928V22.07l-5 3.333z" fill="#f6f6f6" /></g><g clip-path="url(#av)" transform="matrix(.5 0 0 -.5 -.018 16.04)" class="vs_background"><path d="M12 18.203l-6.295 4.195 9.295 6.2 6.295-4.2L12 18.203zM27 23l-3-2v4l-9 6-12-8V13l.979-.652.145.47 1.217-.017c.16.255.324.492.491.714L5 14.07v6.396l6-4v-.494c.708-.065 1.293-.27 1.765-.64.088-.067.157-.15.235-.226v1.36l9 6v-2.799L15 15v-2.44l.168-.239c.153.11.303.198.453.273a3.51 3.51 0 001.558.363c.985 0 1.618-.4 1.977-.736.539-.495.844-1.207.844-1.992 0-.762-.299-1.464-.844-1.973a2.626 2.626 0 00-.777-.513l2.228-1.169-1.265-1.855c-.481-.703-.968-1.234-1.481-1.627L18 3l12 8v10l-3 2z" /><path d="M15.738 9.468a.97.97 0 00.577.197c.076 0 .216-.025.412-.074.202-.051.378-.076.531-.076.211 0 .39.066.53.199a.675.675 0 01.212.516c0 .222-.069.4-.212.532-.14.13-.344.195-.61.195-.233 0-.456-.051-.667-.153-.208-.104-.47-.324-.794-.666-.239-.254-.596-.697-1.065-1.332a6.195 6.195 0 01-.969 2.15h-3.057V9.839c.186.034.842.529.97.529a.772.772 0 00.621-.295c.26-.306.621-1.237 1.082-2.794a28.786 28.786 0 00-1.18-1.32c-.22-.22-.404-.36-.548-.426a.83.83 0 00-.375-.08c-.104 0-.278.052-.519.16a1.177 1.177 0 01-.438.105.866.866 0 01-.606-.22.7.7 0 01-.238-.55.66.66 0 01.222-.512c.143-.13.344-.195.595-.195.237 0 .463.045.674.136.211.094.477.288.797.59.32.297 1.196 1.227 1.758 1.878.215-.62.633-1.527.79-1.808.157-.28.34-.484.544-.61.204-.124.458-.186.768-.186.297 0 .6.095.906.294.402.252.816.692 1.24 1.313l-.259.136c-.289-.365-.504-.595-.64-.688a.607.607 0 00-.327-.087c-.148 0-.295.087-.439.259-.247.286-.8 1.54-1.208 2.853.365.586.672.968.922 1.148" /><path d="M8.446 10.798c.297 1.107.69 1.917 1.181 2.428.297.32.588.478.87.478.06 0 .105-.013.14-.045a.142.142 0 00.056-.12c0-.041-.04-.126-.12-.248a.647.647 0 01-.118-.347c0-.154.061-.285.187-.394a.7.7 0 01.475-.164.72.72 0 01.518.2c.14.134.21.316.21.542a.752.752 0 01-.314.629c-.208.163-.544.243-1.005.243a3.48 3.48 0 01-1.958-.577c-.587-.385-1.143-1.021-1.67-1.91-.183-.305-.357-.503-.519-.591-.164-.086-.426-.13-.787-.124l-.237-.768h1.002l-1.47-5.244c-.244-.861-.412-1.391-.497-1.592a1.916 1.916 0 00-.57-.75.552.552 0 00-.365-.125.162.162 0 00-.103.036l-.036.046c0 .022.036.065.11.132.07.068.108.173.108.312a.484.484 0 01-.173.38c-.116.102-.28.153-.497.153-.259 0-.468-.065-.627-.198A.589.589 0 012 2.714c0-.192.094-.36.288-.501.191-.142.491-.213.9-.213.65 0 1.224.153 1.725.462.502.309.94.785 1.315 1.427.372.642.76 1.68 1.151 3.112l.843 3.029h1.016l.253.768H8.446z" /></g><path d="M7.482 1.742l-4.648 3.1 3.148 2.097 4.647-3.098-3.147-2.1z" fill="#f0eff1" /><g clip-path="url(#aw)" transform="matrix(.5 0 0 -.5 -.018 16.04)"><path d="M5 14.07l.832-.556c.506.671 1.049 1.194 1.64 1.581a5.458 5.458 0 003.054.905c.167 0 .32-.016.474-.03v.495l-6 4V14.07zm8 2.395v-1.36a2.715 2.715 0 00.841-2.148h.879l.28-.397V15l7 4.666v2.799l-9-6z" fill="#f0eff1" /></g></svg>