<svg viewBox="0 0 16 16" xmlns="http://www.w3.org/2000/svg" width="24" height="24"><path d="M6.511-.062L.564 3.903v6.07l.698.465h-.198v2h-1v3.5h9v-.5h.303l6.697-4.465v-6.07l-2.5-1.667-.5.334v-.667L8.617-.062H6.51z" fill="#f6f6f6" /><path d="M6.064 6.837L2.917 4.739l4.647-3.1 3.148 2.1-4.648 3.098zm7.5-2.399l-1.5 1v-2l-4.5-3-6 4v5l.5.334V7.938h.5V5.706l3 2v.232h1v-.232l4.5-3v1.399l-3.5 2.333v1.798l-.303.202h.803v2h1v2l6-4v-5l-1.5-1z" fill="#424242" /><path d="M7.064 11.438H5.04v-1h1.024v-1.5h-3v1.5h1v1h-2v2h-1v1.5h3v-1.5h-1v-1h3v1h-1v1.5h3v-1.5h-1v-2z" fill="#424242" /><path d="M7.564 1.64L2.917 4.738l3.147 2.098 4.648-3.098-3.148-2.1zm-5 6.298h3v-.232l-3-2v2.232zm4-.232v.232h.5v2.5h.197l.303-.202V8.438l3.5-2.333v-1.4l-4.5 3z" fill="#f0eff1" /></svg>