<svg viewBox="0 0 16 16" xmlns="http://www.w3.org/2000/svg" width="24" height="24"><defs><clipPath clipPathUnits="userSpaceOnUse" id="ax"><path d="M0 16h16V0H0v16z" /></clipPath><clipPath clipPathUnits="userSpaceOnUse" id="ay"><path d="M0 16h16V0H0v16z" /></clipPath><clipPath clipPathUnits="userSpaceOnUse" id="az"><path d="M0 16h16V0H0v16z" /></clipPath></defs><g clip-path="url(#ax)" transform="matrix(0 -1.14286 -1.14286 0 16.957 17.155)"><path d="M11 12c-1.475 0-2.75-.81-3.443-2H1V6h1V4h5v2h.557C8.25 4.811 9.525 4 11 4c2.206 0 4 1.794 4 4s-1.794 4-4 4" fill="#f6f6f6" /></g><g clip-path="url(#ay)" transform="matrix(0 -1.14286 -1.14286 0 16.957 17.155)"><path d="M11 7c-.551 0-1 .449-1 1a1 1 0 101-1m0 4a2.996 2.996 0 01-2.815-2H2V7h1V5h1v2h1V5h1v2h2.185A2.996 2.996 0 0111 5c1.654 0 3 1.346 3 3s-1.346 3-3 3" fill="#424242" /></g><g clip-path="url(#az)" transform="matrix(0 -1.14286 -1.14286 0 16.957 17.155)"><path d="M12 8a1 1 0 11-2 0 1 1 0 012 0" fill="#f0eff1" /></g></svg>