<svg viewBox="0 0 16 16" xmlns="http://www.w3.org/2000/svg" width="24" height="24"><path d="M15.997 15.998h-16v-16h16v16z" fill="#f6f6f6" /><path d="M7.464 10.664H3.197V9.598h4.267v1.066zm0-2.133H3.197V7.464h4.267v1.067zm5.333 4.267h-6.4V11.73h6.4v1.067zm-1.066-2.134h-3.2V9.598h3.2v1.066zm-6.4 2.134H3.197V11.73h2.134v1.067zm5.333-4.267H8.531V7.464h2.133v1.067zm-3.2-2.133H3.197V5.33h4.267v1.067zm6.4 7.466H2.131v-9.6h11.733v9.6zm-12.8 1.067h13.867V1.064H1.064v13.867z" fill="#424242" /><path d="M12.797 12.798h-6.4V11.73h6.4v1.067zm-7.466 0H3.197V11.73h2.134v1.067zm-2.134-3.2l4.267.02v1.046H3.197V9.598zm0-2.114l4.267-.02v1.067H3.197V7.484zm0-2.153h4.267v1.067H3.197V5.33zm5.334 4.267h3.2v1.066h-3.2V9.598zm0-2.134h2.133v1.067H8.531V7.464zm-6.4 6.4h11.733v-9.6H2.131v9.6z" fill="#f0eff1" /></svg>