<svg viewBox="0 0 16 16" xmlns="http://www.w3.org/2000/svg" width="64" height="64"><defs><clipPath clipPathUnits="userSpaceOnUse" id="ba"><path d="M0 32h32V0H0v32z" /></clipPath><clipPath clipPathUnits="userSpaceOnUse" id="bb"><path d="M0 32h32V0H0v32z" /></clipPath><clipPath clipPathUnits="userSpaceOnUse" id="bc"><path d="M0 32h32V0H0v32z" /></clipPath></defs><g clip-path="url(#ba)" transform="matrix(.51613 0 0 -.51613 -.22 16.033)"><path d="M22 23c.551 0 1-.449 1-1 0-.551-.449-1-1-1-.551 0-1 .449-1 1 0 .551.449 1 1 1m-9-1v2h.173l-.111-.966A9.055 9.055 0 0113 22c0-.35.023-.694.062-1.034l.111-.966H13v2zm13-8h-1.443l.349.984 1.702-.808.976.771a9.119 9.119 0 011.469 1.47l.771.976-.807 1.701 1.779.633.142 1.239c.039.34.062.684.062 1.034s-.023.694-.062 1.034l-.142 1.239-1.779.633.807 1.701-.771.976a9.119 9.119 0 01-1.469 1.47l-.976.771-1.702-.808-.631 1.777-1.238.144A8.87 8.87 0 0122 31c-.35 0-.693-.023-1.033-.062l-1.239-.143-.632-1.779-1.703.808-.976-.771A9.084 9.084 0 0115 27.643V30H1V14h14v2.357c.42-.52.895-.996 1.417-1.41l.976-.771 1.703.808.349-.984H18V9h-5V1h5V0h8v1h5v8h-5v5z" fill="#f6f6f6" /></g><path d="M14.23 13.968h-1.548v-1.032h1.549v1.032zm-2.58-2.064h-1.032v-1.549h1.032v1.549zm-2.064 2.064H8.037v-1.032h1.549v1.032zm3.096-2.064h-.516V9.839h-2.064v2.065h-.516v.516H7.52v2.064h2.065v.517h3.096v-.517h2.065V12.42h-2.065v-.516z" fill="#424242" /><g clip-path="url(#bb)" transform="matrix(.51613 0 0 -.51613 -.22 16.033)" class="vs_background"><path d="M22 25a3 3 0 100-6 3 3 0 000 6m-4.714-4.603c.07-.207.151-.407.246-.6l-1.016-2.139a7.01 7.01 0 011.142-1.142l2.14 1.016c.193-.096.394-.176.601-.247l.795-2.235c.265-.03.534-.05.806-.05.273 0 .542.02.808.051l.795 2.235c.207.071.407.151.6.247l2.14-1.017c.424.336.806.718 1.141 1.142l-1.016 2.139c.095.193.176.393.246.6l2.236.796c.03.265.05.534.05.807s-.02.542-.05.807l-2.236.796c-.07.207-.151.407-.246.6l1.016 2.139a6.964 6.964 0 01-1.141 1.142l-2.14-1.017a4.778 4.778 0 01-.6.246l-.795 2.236A6.969 6.969 0 0122 29c-.272 0-.541-.02-.806-.05l-.795-2.235a4.888 4.888 0 01-.601-.247l-2.14 1.016a7.01 7.01 0 01-1.142-1.142l1.016-2.139a4.934 4.934 0 01-.246-.6l-2.236-.796A7.165 7.165 0 0115 22c0-.273.02-.542.05-.807l2.236-.796z" /><path d="M22 20.5a1.5 1.5 0 110 3 1.5 1.5 0 010-3M3 26h10v2H3v-2zm8-3H3v-2h8v2zm-8-7h10v2H3v-2z" /></g><g clip-path="url(#bc)" transform="matrix(.51613 0 0 -.51613 -.22 16.033)"><path d="M22 20.5a1.5 1.5 0 10.001 3.001A1.5 1.5 0 0022 20.5m0 4.5a3 3 0 110-6 3 3 0 010 6M16 4h3v2h-3V4zm9 0h3v2h-3V4zm-4 4h2v3h-2V8z" fill="#f0eff1" /></g></svg>