<svg viewBox="0 0 16 16" xmlns="http://www.w3.org/2000/svg" width="24" height="24"><defs><clipPath clipPathUnits="userSpaceOnUse" id="bd"><path d="M0 32h32V0H0v32z" /></clipPath><clipPath clipPathUnits="userSpaceOnUse" id="be"><path d="M0 32h32V0H0v32z" /></clipPath><clipPath clipPathUnits="userSpaceOnUse" id="bf"><path d="M0 32h32V0H0v32z" /></clipPath></defs><g clip-path="url(#bd)" transform="matrix(.5 0 0 -.5 0 16)"><path d="M32 6H18V0H0v14h4.5C3.547 15.062 3 16.461 3 18a5.992 5.992 0 003 5.191V32h26V6z" fill="#f6f6f6" /></g><g clip-path="url(#be)" transform="matrix(.5 0 0 -.5 0 16)"><path d="M8 30v-6.09c.326.055.658.09 1 .09.702 0 1.374-.127 2-.35V27h16V11h-9V8h12v22H8zm2-24a1 1 0 11-2 0 1 1 0 012 0m6 6V2H2v10h4l3-3 3 3h4zM5 18a4 4 0 108 0 4 4 0 00-8 0" fill="#424242" /></g><g clip-path="url(#bf)" transform="matrix(.5 0 0 -.5 0 16)"><path d="M10 6a1 1 0 11-2 0 1 1 0 012 0m17 21V11h-9v3h-4.5c.953 1.062 1.5 2.461 1.5 4a5.995 5.995 0 01-4 5.65V27h16z" fill="#f0eff1" /></g></svg>