<svg viewBox="0 0 16 16" xmlns="http://www.w3.org/2000/svg" width="64" height="64"><defs><clipPath clipPathUnits="userSpaceOnUse" id="bg"><path d="M0 32h32V0H0v32z" /></clipPath><clipPath clipPathUnits="userSpaceOnUse" id="bh"><path d="M0 32h32V0H0v32z" /></clipPath><clipPath clipPathUnits="userSpaceOnUse" id="bi"><path d="M0 32h32V0H0v32z" /></clipPath></defs><g clip-path="url(#bg)" transform="matrix(.7271 0 0 -.7271 -6.54 17.058)"><path d="M22 10c-.551 0-1 .449-1 1 0 .551.449 1 1 1 .551 0 1-.449 1-1 0-.551-.449-1-1-1m8.938 2.034l-.142 1.239-1.779.633.807 1.701-.771.976a9.119 9.119 0 01-1.469 1.47l-.976.771-1.702-.808-.631 1.777-1.238.144A8.87 8.87 0 0122 20c-.35 0-.693-.023-1.033-.062l-1.239-.143-.632-1.779-1.703.808-.976-.771A9.084 9.084 0 0115 16.643V5.357c.42-.52.895-.996 1.417-1.41l.976-.771 1.703.808.632-1.779 1.239-.143C21.307 2.023 21.65 2 22 2c.352 0 .696.023 1.037.063l1.238.144.631 1.777 1.702-.808.976.771a9.119 9.119 0 011.469 1.47l.771.976-.807 1.701 1.779.633.142 1.239c.039.34.062.684.062 1.034s-.023.694-.062 1.034" fill="#f6f6f6" /></g><path d="M9.456 8.333a.728.728 0 010 1.454.728.728 0 010-1.454M2.957 9.812l.104.9 1.293.461-.587 1.237.561.71a6.63 6.63 0 001.068 1.068l.71.56 1.237-.587.459 1.293.9.104a6.256 6.256 0 001.505.001l.901-.104.46-1.294 1.238.588.71-.56c.38-.302.724-.648 1.03-1.026V4.957a6.605 6.605 0 00-1.03-1.025l-.71-.56-1.238.587-.46-1.294-.9-.104a6.57 6.57 0 00-.752-.045c-.256 0-.506.017-.754.046l-.9.105-.459 1.292-1.237-.588-.71.561a6.63 6.63 0 00-1.068 1.069l-.56.71.586 1.236-1.293.46-.104.901a6.584 6.584 0 00-.045.752c0 .255.017.505.045.752" fill="#f6f6f6" /><g clip-path="url(#bh)" transform="matrix(.7271 0 0 -.7271 -6.564 17.008)" class="vs_background"><path d="M22 8a3 3 0 100 6 3 3 0 000-6m6.95 2.193c.03.265.05.534.05.807s-.02.542-.05.807l-2.236.796c-.07.207-.151.407-.246.6l1.016 2.139a6.964 6.964 0 01-1.141 1.142l-2.14-1.017a4.778 4.778 0 01-.6.246l-.795 2.236A6.969 6.969 0 0122 18c-.272 0-.541-.02-.806-.05l-.795-2.235a4.888 4.888 0 01-.601-.247l-2.14 1.016a7.01 7.01 0 01-1.142-1.142l1.016-2.139a4.934 4.934 0 01-.246-.6l-2.236-.796A7.165 7.165 0 0115 11c0-.273.02-.542.05-.807l2.236-.796c.07-.207.151-.407.246-.6l-1.016-2.139a7.01 7.01 0 011.142-1.142l2.14 1.016c.193-.096.394-.176.601-.247l.795-2.235c.265-.03.534-.05.806-.05.273 0 .542.02.808.051l.795 2.235c.207.071.407.151.6.247l2.14-1.017c.424.336.806.718 1.141 1.142l-1.016 2.139c.095.193.176.393.246.6l2.236.796z" /><path d="M22 12.5a1.5 1.5 0 110-3 1.5 1.5 0 010 3" /></g><g clip-path="url(#bi)" transform="matrix(.55749 0 0 -.55749 -.557 18.41)"><path d="M11.828 19l4 4-5 5.924H7l.088 2.34h-6L1 25c-.031-2.207 1.437-4.086 3.426-4.746z" fill="#f6f6f6" /></g><path d="M3.357 3.279l1.255 1.255H2.73c-.345 0-.685-.282-.685-.628V2.023H.846v1.883c0 1.039.845 1.883 1.883 1.883h1.883L3.357 7.045H5.24l1.883-1.883L5.24 3.279z" fill="#00539c" /></svg>