<svg viewBox="0 0 16 16" xmlns="http://www.w3.org/2000/svg" width="24" height="24"><defs><clipPath clipPathUnits="userSpaceOnUse" id="bj"><path d="M0 32h32V0H0v32z" /></clipPath><clipPath clipPathUnits="userSpaceOnUse" id="bk"><path d="M0 32h32V0H0v32z" /></clipPath></defs><path d="M1 16h14V0H1v16z" fill="#f6f6f6" /><g clip-path="url(#bj)" transform="matrix(.5 0 0 -.5 0 16)" class="vs_background"><path d="M16 23.002a3.001 3.001 0 000-6 3 3 0 100 6m-2.316-8.535L12.25 6H13l3 4 3.25-4H20l-1.684 8.467A5.999 5.999 0 0116 26a6 6 0 01-2.316-11.533" /><path d="M26 4H6v24h20V4zM4 2h24v28H4V2z" /></g><g clip-path="url(#bk)" transform="matrix(.5 0 0 -.5 0 16)" class="vs_foreground"><path d="M16 23.002a3.001 3.001 0 010-6 3 3 0 110 6" /><path d="M18.316 14.467L20 6h-.75L16 10l-3-4h-.75l1.433 8.467A6 6 0 0016 26a6 6 0 002.316-11.533M6 4h20v24H6V4z" /></g></svg>