<svg viewBox="0 0 16 16" xmlns="http://www.w3.org/2000/svg" width="24" height="24"><defs><clipPath clipPathUnits="userSpaceOnUse" id="bl"><path d="M0 32h32V0H0v32z" /></clipPath><clipPath clipPathUnits="userSpaceOnUse" id="bm"><path d="M0 32h32V0H0v32z" /></clipPath><clipPath clipPathUnits="userSpaceOnUse" id="bn"><path d="M0 32h32V0H0v32z" /></clipPath></defs><g clip-path="url(#bl)" transform="matrix(.5 0 0 -.5 0 16)"><path d="M18.365 15.905a3.68 3.68 0 01-.062.095h.18c-.04-.033-.078-.059-.118-.095M13.31 9.78a3.105 3.105 0 01-1.01.175c-.56 0-1.08-.135-1.537-.392l.401 1.533 2.002.392c.136.027.267.066.39.114.1-.286.217-.652.358-1.117a45.188 45.188 0 00-.604-.705M32 31H8V18.921c-.559-.59-1.086-1.305-1.584-2.19l-1.418.02-1.473-5.044h1.328s-1.256-4.77-1.29-4.905c-.15.023-.31.035-.48.035-1.03 0-1.718-.416-2.11-.764A2.8 2.8 0 010 3.953c0-.879.4-1.676 1.121-2.238C1.721 1.24 2.515 1 3.486 1c1.205 0 2.3.318 3.25.943.897.587 1.67 1.465 2.307 2.621.168.31.332.661.496 1.061.146-.304.346-.579.592-.816.388-.376 1.074-.823 2.132-.823.588 0 1.155.122 1.698.372.486.23.98.605 1.55 1.175.061.06.135.136.217.223a3.88 3.88 0 011.147-1.195c.582-.382 1.273-.575 2.053-.575.79 0 1.552.252 2.244.73.74.496 1.435 1.26 2.125 2.335l.703 1.1v.927l-3.262 1.84-.312-.42c-.07.192-.14.398-.213.614a4.29 4.29 0 01.86-.093 2.91 2.91 0 012.081.856c.553.555.846 1.282.846 2.098 0 .99-.405 1.638-.767 2.027H32v15z" fill="#f6f6f6" /></g><path d="M9 5.5h.5V3H9v2.5zm2.5-.5H11V3.5h.5V5zm-1 .5H12V3h-1.5v2.5zm2.5 0h.5V3H13v2.5zM7.5 5H7V3.5h.5V5zM8 3H6.5v2.5H8V3z" fill="#424242" /><g clip-path="url(#bm)" transform="matrix(.5 0 0 -.5 0 16)" class="vs_background"><path d="M10 29v-8.594a6.088 6.088 0 002 .546V27h16v-7H15.402a2.988 2.988 0 00.887-2H30v11H10zm.057-14.27c.37 1.476.863 2.557 1.477 3.237.37.427.734.639 1.089.639a.244.244 0 00.174-.06.2.2 0 00.07-.158c0-.058-.05-.17-.152-.334a.928.928 0 01-.146-.463c0-.204.078-.38.234-.524a.834.834 0 01.594-.219.86.86 0 01.646.268c.176.177.264.418.264.72 0 .345-.13.624-.393.84-.261.216-.681.324-1.255.324a4.15 4.15 0 01-2.448-.77c-.734-.513-1.43-1.36-2.09-2.546-.228-.408-.445-.67-.648-.787-.205-.116-.531-.173-.98-.167l-.3-1.023h1.255L5.61 6.715c-.305-1.149-.514-1.856-.623-2.124a2.54 2.54 0 00-.711-.998.667.667 0 00-.457-.167.204.204 0 00-.13.046l-.044.061c0 .03.045.087.137.177.089.091.136.231.136.416a.658.658 0 01-.218.506c-.143.136-.35.204-.618.204-.328 0-.586-.086-.787-.264A.803.803 0 012 3.952c0-.257.119-.48.362-.669C2.6 3.094 2.975 3 3.487 3c.808 0 1.527.204 2.154.616.629.412 1.174 1.047 1.645 1.901.464.858.947 2.241 1.439 4.15l1.055 4.04h1.267l.317 1.023h-1.307z" /><path d="M20.973 14.943c-.291 0-.57-.068-.832-.205-.26-.138-.592-.433-.994-.888-.3-.339-.744-.929-1.332-1.777a8.553 8.553 0 01-1.21 2.87h-3.823v-1.492c.234.046 1.054.705 1.214.705.315 0 .57-.132.776-.394.324-.409.775-1.65 1.35-3.725a38.17 38.17 0 00-1.473-1.76c-.276-.292-.506-.48-.684-.567a.985.985 0 00-.47-.107c-.13 0-.348.07-.647.212-.203.091-.387.14-.55.14a1.05 1.05 0 01-.757-.29.972.972 0 01-.295-.735c0-.279.09-.506.276-.683.18-.174.43-.26.742-.26.299 0 .582.06.846.181.263.124.593.384.994.786.4.396 1.496 1.636 2.197 2.505.27-.828.79-2.037.988-2.412.198-.374.424-.645.68-.812.254-.166.574-.249.959-.249.373 0 .75.128 1.133.393.504.336 1.02.922 1.55 1.75l-.322.181c-.363-.487-.63-.794-.802-.918a.72.72 0 00-.41-.114c-.182 0-.366.114-.547.345-.307.382-.998 2.052-1.508 3.802.455.784.84 1.292 1.15 1.533.23.174.47.261.723.261.094 0 .269-.033.515-.099.252-.067.47-.1.663-.1.263 0 .488.088.664.265.177.18.263.408.263.688 0 .296-.086.533-.263.708-.176.176-.432.262-.764.262" /></g><path d="M11 5h.5V3.5H11V5zM7 5h.5V3.5H7V5z" fill="#f0eff1" /><g clip-path="url(#bn)" transform="matrix(.5 0 0 -.5 0 16)"><path d="M27 21h-1v5h1v-5zm-3 0h-3v5h3v-5zm-5 0h-1v5h1v-5zm-3 0h-3v5h3v-5zm-4 6v-6.048c.218.022.434.048.658.048 1.053 0 1.905-.264 2.531-.784.081-.065.141-.145.213-.216H28v7H12z" fill="#f0eff1" /></g></svg>