<svg viewBox="0 0 16 16" xmlns="http://www.w3.org/2000/svg" width="24" height="24"><defs><clipPath id="bo" clipPathUnits="userSpaceOnUse"><path d="M0 16h16V0H0v16z" /></clipPath><clipPath id="bp" clipPathUnits="userSpaceOnUse"><path d="M0 16h16V0H0v16z" /></clipPath><clipPath id="bq" clipPathUnits="userSpaceOnUse"><path d="M0 16h16V0H0v16z" /></clipPath><clipPath id="br" clipPathUnits="userSpaceOnUse"><path d="M0 16h16V0H0v16z" /></clipPath></defs><g clip-path="url(#bo)" transform="matrix(1.00001 0 0 -1.00001 0 16)"><path d="M15.552 10.497l-.595 1.318L12 8.858l-.586.586L14.37 12.4l-1.32.596a4.961 4.961 0 01-2.051.448 4.964 4.964 0 01-2.041-.44A3.503 3.503 0 015.499 16 3.505 3.505 0 012 12.5c0-.322.047-.639.138-.949L0 9.414v-.828l2-2 2.55 2.551a3.356 3.356 0 011.49-.09A4.988 4.988 0 016 8.443c0-.468.068-.933.2-1.385L3.293 4.151c-.686-.685-1.253-2.162 0-3.414C3.903.128 4.537 0 4.963 0c.958 0 1.62.614 1.744.737l2.907 2.908a4.912 4.912 0 011.386-.2c2.757 0 5 2.242 5 5 0 .702-.15 1.393-.448 2.052" fill="#f6f6f6" /></g><g clip-path="url(#bp)" transform="matrix(1.00001 0 0 -1.00001 0 16)"><path d="M14.64 10.085L12 7.444l-2 2 2.64 2.641a3.968 3.968 0 01-1.64.359 3.977 3.977 0 01-2.06-.576A3.509 3.509 0 007.12 9.4 4.012 4.012 0 017 8.444c0-.586.133-1.138.36-1.64L4 3.444s-1-1 0-2 2 0 2 0l3.36 3.36a3.964 3.964 0 011.64-.36 4 4 0 014 4c0 .586-.132 1.139-.36 1.641" fill="#424242" /></g><g clip-path="url(#bq)" transform="matrix(1.00001 0 0 -1.00001 0 16)"><path d="M4 12.5a1.5 1.5 0 103.001-.001A1.5 1.5 0 004 12.5m-.688-1.188L1 9l1-1 2.313 2.312A2.473 2.473 0 015.5 10 2.5 2.5 0 113 12.5c0-.432.119-.832.312-1.188" fill="#00539c" /></g><g clip-path="url(#br)" transform="matrix(1.00001 0 0 -1.00001 0 16)"><path d="M5.5 14a1.5 1.5 0 10-.001-3.001A1.5 1.5 0 005.5 14" fill="#f0eff1" /></g></svg>