<svg viewBox="0 0 16 16" xmlns="http://www.w3.org/2000/svg" width="24" height="24"><path d="M7 0v4.249A8.103 8.103 0 005 4C2.149 4 0 5.29 0 7v6c0 1.711 2.149 3 5 3s5-1.289 5-3h6V0z" fill="#f6f6f6" /><path d="M14 3H9V2h5zm0 2H9V4h5zm0 6h-1v-1h1zM8 1v3.579c1.224.537 2 1.4 2 2.421v5h5V1z" fill="#424242" /><path d="M5 8.325c-1.999 0-3.325-.798-3.325-1.325 0-.528 1.326-1.325 3.325-1.325S8.325 6.472 8.325 7c0 .527-1.326 1.325-3.325 1.325M5 5c-2.209 0-4 .895-4 2v6c0 1.104 1.791 2 4 2s4-.896 4-2V7c0-1.105-1.791-2-4-2" fill="#424242" /><path d="M9 3h5V1.999H9zm4 8h1.001v-1H13zM9 5h5V4H9zm-4 .675c-1.999 0-3.325.798-3.325 1.325 0 .528 1.326 1.325 3.325 1.325S8.325 7.528 8.325 7c0-.527-1.326-1.325-3.325-1.325" fill="#f0eff1" /></svg>