<svg viewBox="0 0 16 16" xmlns="http://www.w3.org/2000/svg" width="24" height="24"><defs><clipPath clipPathUnits="userSpaceOnUse" id="bs"><path d="M0 32h32V0H0v32z" /></clipPath><clipPath clipPathUnits="userSpaceOnUse" id="bt"><path d="M0 32h32V0H0v32z" /></clipPath><clipPath clipPathUnits="userSpaceOnUse" id="bu"><path d="M0 32h32V0H0v32z" /></clipPath></defs><g clip-path="url(#bs)" transform="matrix(.5 0 0 -.5 0 16)"><path d="M32 20.514l-2.035 1.117L32 22.827v1.147l-.201.708a8.215 8.215 0 01-.369 1.11 8.545 8.545 0 01-.534.994l-.904 1.538-2.588-.751.68 2.606-1.361.752c-.793.438-1.643.776-2.524 1.005l-.248.064h-1.437l-1.121-2.041-1.198 2.04h-1.15l-.727-.21a8.15 8.15 0 01-1.077-.36 8.138 8.138 0 01-1.011-.541l-1.528-.903.752-2.583-2.614.68-.749-1.366c-.44-.8-.777-1.648-1.001-2.523l-.388-1.506 2.361-1.294-2.318-1.361.028-.098c-.255.03-.508.066-.773.066-.366 0-.719-.043-1.263-.118l-1.539-.197-.278-2.248-1.795 1.398-1.229-.954a10.036 10.036 0 01-1.779-1.782l-.95-1.23 1.396-1.79-.709-.086L.29 12.61l-.198-1.54A7.683 7.683 0 010 10c0-.367.043-.718.118-1.263L.315 7.2l2.248-.28-1.396-1.791.95-1.228A10.064 10.064 0 013.896 2.12l1.229-.954L6.92 2.563l.088-.707.383-1.567L8.929.092A7.71 7.71 0 0110 0c.366 0 .719.043 1.263.118l1.539.199.278 2.246 1.795-1.397 1.229.954a10.064 10.064 0 011.779 1.78l.951 1.229-1.397 1.79.709.089 1.565.383.197 1.539c.049.352.092.703.092 1.07 0 .245-.025.506-.059.797l.393-.101 1.301 2.369 1.361-2.322 1.701.488c.367.099.735.209 1.098.365.381.166.725.369 1.209.666l1.314.795-.746 2.566 2.612-.68.752 1.36a10.97 10.97 0 011.002 2.528l.062.244v1.439z" fill="#f6f6f6" /></g><g clip-path="url(#bt)" transform="matrix(.5 0 0 -.5 0 16)" class="vs_background"><path d="M23.256 17.47a4.401 4.401 0 10-3.483 8.084 4.401 4.401 0 003.483-8.083m4.338 3.18a6.112 6.112 0 01-.023 1.894l2.36 1.387c-.101.356-.185.714-.335 1.062-.152.35-.354.656-.541.975l-2.633-.764a6.058 6.058 0 01-1.36 1.317l.694 2.658c-.65.359-1.34.634-2.06.82l-1.321-2.41a6.157 6.157 0 01-1.896-.022l-1.387 2.362c-.354-.103-.713-.187-1.061-.337-.35-.15-.655-.352-.974-.541l.765-2.63a6.07 6.07 0 01-1.318-1.361l-2.66.693a8.868 8.868 0 01-.817-2.06l2.408-1.321a6.082 6.082 0 01.022-1.894l-2.361-1.387c.102-.357.186-.714.337-1.062.15-.35.35-.656.54-.975l2.63.764a6.025 6.025 0 011.362-1.317l-.694-2.658a8.905 8.905 0 012.059-.82l1.323 2.409a6.158 6.158 0 011.896.023l1.387-2.362c.353.102.713.186 1.06.336.35.152.657.352.973.543l-.764 2.629c.518.389.957.849 1.319 1.36l2.66-.692c.359.65.63 1.34.816 2.06l-2.406 1.32z" /><path d="M10 6a4 4 0 100 8 4 4 0 000-8m5.428 5.316a5.51 5.51 0 01-.662 1.59l1.535 1.969a8.009 8.009 0 01-1.424 1.426l-1.971-1.535a5.56 5.56 0 01-1.592.662l-.306 2.47c-.334.043-.662.102-1.008.102s-.674-.059-1.008-.102l-.306-2.47a5.56 5.56 0 01-1.592-.662l-1.971 1.535a8.009 8.009 0 01-1.424-1.426l1.535-1.969a5.51 5.51 0 01-.662-1.59l-2.47-.308C2.059 10.674 2 10.346 2 10s.059-.674.102-1.008l2.47-.308a5.51 5.51 0 01.662-1.59L3.699 5.125a8.009 8.009 0 011.424-1.426l1.971 1.535a5.56 5.56 0 011.592-.662l.306-2.47C9.326 2.059 9.654 2 10 2s.674.059 1.008.102l.306 2.47a5.56 5.56 0 011.592.662l1.971-1.535c.533.414 1.01.891 1.424 1.426l-1.535 1.969a5.51 5.51 0 01.662 1.59l2.47.308c.043.334.102.662.102 1.008s-.059.674-.102 1.008l-2.47.308z" /><path d="M10 8a2 2 0 100 4 2 2 0 000-4m12.383 11.491a2.199 2.199 0 10-1.74 4.041 2.2 2.2 0 101.74-4.04" /></g><g clip-path="url(#bu)" transform="matrix(.5 0 0 -.5 0 16)"><path d="M10 7.9a2.1 2.1 0 100 4.201 2.1 2.1 0 000-4.2m0 6.1A4 4 0 1110 6a4 4 0 010 8m12.426 5.39a2.308 2.308 0 00-3.033 1.207 2.31 2.31 0 103.033-1.206m3.129 3.862a4.401 4.401 0 11-8.084-3.484 4.401 4.401 0 018.084 3.484" fill="#f0eff1" /></g></svg>