<svg viewBox="0 0 16 16" xmlns="http://www.w3.org/2000/svg" width="24" height="24"><defs><clipPath clipPathUnits="userSpaceOnUse" id="bw"><path d="M0 32h32V0H0v32z" /></clipPath><clipPath clipPathUnits="userSpaceOnUse" id="bx"><path d="M0 32h32V0H0v32z" /></clipPath><clipPath clipPathUnits="userSpaceOnUse" id="by"><path d="M0 32h32V0H0v32z" /></clipPath></defs><g clip-path="url(#bw)" transform="matrix(.5 0 0 -.5 0 16)"><path d="M28.645 16A8.985 8.985 0 0132 23c0 4.963-4.037 9-9 9a8.9 8.9 0 01-5.65-2H5.17L0 24.828v-3.656L3.171 18H15.54a8.971 8.971 0 011.824-1.989L17.35 16H5.171L0 10.828V7.172L3.171 4H15.54A8.902 8.902 0 0123 0c4.963 0 9 4.037 9 9a8.985 8.985 0 01-3.355 7" fill="#f6f6f6" /></g><g clip-path="url(#bx)" transform="matrix(.5 0 0 -.5 0 16)" class="vs_background"><path d="M24 22a2 2 0 100 4 2 2 0 000-4m6 1a7 7 0 01-7 7c-2.787 0-5.174-1.642-6.301-4H16v2h-2l-2-2v2h-2l-2-2v2H6l-4-4v-2l2-2h12.699c1.127-2.358 3.514-4 6.301-4a7 7 0 017 7M23 4a4.998 4.998 0 00-4.898 4H4v2l2 2h1v-2h1l2 2h1v-2h1l2 2h1v-2h3.102A5 5 0 0028 9a5 5 0 00-5-5m0 12c-2.787 0-5.174-1.642-6.301-4H16v2h-2l-2-2v2h-2l-2-2v2H6l-4-4V8l2-2h12.699C17.826 3.642 20.213 2 23 2a7 7 0 010 14" /><path d="M24 12a2 2 0 110-4 2 2 0 010 4" /></g><g clip-path="url(#by)" transform="matrix(.5 0 0 -.5 0 16)"><path d="M24 8a2 2 0 100 4 2 2 0 000-4m-1 6a4.998 4.998 0 01-4.898-4H15v2h-1l-2-2h-1v2h-1l-2-2H7v2H6l-2-2V8h14.102A5 5 0 0128 9a5 5 0 01-5 5" fill="#f0eff1" /></g></svg>