<svg viewBox="0 0 16 16" xmlns="http://www.w3.org/2000/svg" width="24" height="24"><path d="M16 15.5H0V.567h16V15.5z" fill="#f6f6f6" /><path d="M13.867 6.967h-3.2V4.833h3.2v2.134zm0 3.2h-3.2V8.033h3.2v2.134zm0 3.2h-3.2v-2.134h3.2v2.134zM9.6 6.967H6.4V4.833h3.2v2.134zm0 3.2H6.4V8.033h3.2v2.134zm0 3.2H6.4v-2.134h3.2v2.134zm-4.267-6.4h-3.2V4.833h3.2v2.134zm0 3.2h-3.2V8.033h3.2v2.134zm0 3.2h-3.2v-2.134h3.2v2.134zm-4.266 1.066h13.866v-12.8H1.067v12.8z" fill="#424242" /><path d="M5.333 11.233h-3.2v2.134h3.2v-2.134zm4.267 0H6.4v2.134h3.2v-2.134zm4.267 0h-3.2v2.134h3.2v-2.134zm-8.534-3.2h-3.2v2.134h3.2V8.033zm0-3.2h-3.2v2.134h3.2V4.833zm4.267 3.2H6.4v2.134h3.2V8.033zm0-3.2H6.4v2.134h3.2V4.833zm4.267 3.2h-3.2v2.134h3.2V8.033zm0-1.066h-3.2V4.833h3.2v2.134z" fill="#f0eff1" /></svg>