<svg viewBox="0 0 16 16" xmlns="http://www.w3.org/2000/svg" width="24" height="24"><defs><clipPath clipPathUnits="userSpaceOnUse" id="bz"><path d="M0 32h32V0H0v32z" /></clipPath><clipPath clipPathUnits="userSpaceOnUse" id="ca"><path d="M0 32h32V0H0v32z" /></clipPath><clipPath clipPathUnits="userSpaceOnUse" id="cb"><path d="M0 32h32V0H0v32z" /></clipPath></defs><g clip-path="url(#bz)" transform="matrix(.51613 0 0 -.51613 0 16)"><path d="M31 30H2V5.65a3.067 3.067 0 01-1.027-.577A2.793 2.793 0 010 2.953C0 2.075.401 1.277 1.117.718 1.716.241 2.513 0 3.486 0 4.694 0 5.79.319 6.733.942A6.17 6.17 0 017.947 2H31v28z" fill="#f6f6f6" /></g><g clip-path="url(#ca)" transform="matrix(.51613 0 0 -.51613 0 16)" class="vs_background"><path d="M28 20h-5v4h5v-4zm-6 0h-5v4h5v-4zm-12 0H5v4h5v-4zm-6 8V12.331l.999 3.419H5V19h4.283c1.011.653 2.144 1 3.375 1H11v4h5v-4h-3.342c1.052 0 1.904-.264 2.532-.784.08-.065.141-.145.212-.216H16v-.81c.199-.411.307-.869.307-1.354 0-.314-.041-.612-.121-.893H17V19h5v-3.227c.431-.139.761-.34 1-.55V19h5v-4h-4.767c.216-.229.434-.562.585-1H28v-4h-5v.749a2.893 2.893 0 00-1-.569V10h-1.748c.059-.174.116-.345.174-.503l.313.419L23 8.642V9h5V5h-5v.622c-.477-.681-.959-1.218-1.46-1.622H29v24H4z" /><path d="M11.047 12.707l.316 1.023h-1.306c.37 1.477.863 2.557 1.476 3.239.37.426.735.636 1.09.636a.254.254 0 00.174-.058.204.204 0 00.07-.16c0-.057-.05-.168-.152-.332a.92.92 0 01-.147-.463c0-.205.079-.381.235-.526a.845.845 0 01.594-.218c.257 0 .474.089.646.269.176.176.264.418.264.719 0 .346-.13.625-.393.84-.262.217-.681.324-1.256.324-.9 0-1.716-.256-2.447-.77-.734-.511-1.43-1.361-2.09-2.546-.228-.407-.445-.67-.648-.786-.205-.117-.531-.173-.981-.168l-.3-1.023h1.255L5.609 5.715c-.304-1.149-.513-1.856-.623-2.123a2.521 2.521 0 00-.71-.998.668.668 0 00-.458-.168.193.193 0 00-.128.047l-.045.06c0 .029.045.088.136.178.09.09.137.23.137.414a.661.661 0 01-.22.508c-.141.136-.348.203-.616.203-.328 0-.586-.086-.787-.264A.801.801 0 012 2.953c0-.258.119-.48.36-.67C2.6 2.094 2.976 2 3.487 2c.809 0 1.528.203 2.155.617.629.41 1.174 1.047 1.644 1.901.465.857.948 2.24 1.44 4.15l1.054 4.039h1.268z" /><path d="M21.29 7.31c-.364-.485-.632-.794-.804-.917a.717.717 0 00-.408-.115c-.184 0-.367.115-.549.345-.306.38-.998 2.052-1.508 3.802.455.783.84 1.293 1.151 1.531.23.177.471.263.722.263.094 0 .27-.031.516-.097.252-.067.471-.102.662-.102.264 0 .488.09.664.266.178.179.264.408.264.687 0 .296-.086.534-.264.708-.176.177-.43.263-.763.263-.29 0-.57-.07-.832-.206-.26-.136-.592-.433-.995-.886-.298-.34-.744-.93-1.332-1.778a8.533 8.533 0 01-1.209 2.87h-3.824V12.45c.235.045 1.055.705 1.215.705.314 0 .57-.133.775-.395.325-.407.776-1.647 1.352-3.723a36.35 36.35 0 00-1.475-1.76c-.275-.293-.505-.481-.683-.567a.974.974 0 00-.469-.108c-.13 0-.35.068-.648.213-.204.09-.387.14-.549.14-.307 0-.559-.099-.758-.292-.199-.192-.295-.434-.295-.735 0-.277.09-.504.275-.683.18-.172.43-.26.743-.26.298 0 .582.06.845.181.264.125.594.385.994.786.401.398 1.497 1.636 2.198 2.505.27-.825.791-2.036.988-2.411.197-.373.424-.644.68-.812.254-.164.574-.248.96-.248.372 0 .75.127 1.131.392.504.336 1.022.922 1.551 1.75l-.322.182z" /><path d="M13.913 9.485c-.057.191-.108.355-.159.515H11.14l-.376-1.437c.074.042.16.06.236.095V9h2.5c.124.143.262.305.413.485m1.601-4.95A8.482 8.482 0 0014.926 4h1.423a4.194 4.194 0 00-.622.756 6.942 6.942 0 00-.213-.22M4 10.707V7.463l.854 3.244H4zM9.262 4h.704c-.167.194-.316.4-.426.627A11.986 11.986 0 009.262 4" /></g><path d="M11.871 5.677h2.58V3.613h-2.58v2.064zm-3.097 0h2.58V3.613h-2.58v2.064zm-3.097 0h2.581V3.613h-2.58v2.064zm-3.097 0h2.581V3.613h-2.58v2.064zm9.291 7.743h2.58v-2.065h-2.58v2.064z" fill="#f0eff1" /><g clip-path="url(#cb)" transform="matrix(.51613 0 0 -.51613 0 16)"><path d="M5 15.75l1.416-.019c.804 1.429 1.673 2.458 2.651 3.14.07.049.145.083.216.129H5v-3.25zm12 .193h.682l.622-.943h.179c.25.211.49.383.726.507.555.29 1.146.436 1.764.436.4 0 .73-.073 1.027-.17V19h-5v-3.057zm6-.72c.049-.042.108-.086.15-.127.028-.027.056-.067.083-.096H28v4h-5v-3.777zm1-2.25c0-.813-.291-1.537-.842-2.094-.049-.05-.106-.085-.158-.13v-.75h5v4h-4.182c.104-.296.182-.626.182-1.026m-10.842-2.486l-1.991-.382L11.14 10h2.615c-.072.227-.14.433-.197.602a2.228 2.228 0 00-.4-.115m7.055-.374l.039-.113H22v.18a2.97 2.97 0 00-.928-.16c-.27 0-.554.03-.86.093M11 8.658c.398.182.83.297 1.299.297.333 0 .666-.058 1.012-.174l.189.22H11v-.343zm5 9.532V19h-.598c.243-.241.452-.508.598-.81" fill="#f0eff1" /></g></svg>