<svg viewBox="0 0 16 16" xmlns="http://www.w3.org/2000/svg" width="24" height="24"><path d="M0 15h16V1.207H0V15z" fill="#f6f6f6" /><path d="M11.034 5.62h-3.31l-2.207 4.414h2.199l-1.647 3.31h.552l4.413-4.413h-3.31l3.31-3.31zm-5.307 7.173l-.761 1.104H1.103V2.31h13.794v11.587H6.849l1.104-1.104h5.84V5.07H2.207v7.724h3.52z" fill="#424242" /><path d="M9.056 8.38h2.53v.78l-3.633 3.633h5.84V5.07h-2.207v.78l-2.53 2.53zm-2.23 2.206l-1.098 2.207H2.207V5.07h5.176L4.966 9.904v.682h1.86z" fill="#f0eff1" /></svg>