<svg viewBox="0 0 16 16" xmlns="http://www.w3.org/2000/svg" width="24" height="24"><defs><clipPath clipPathUnits="userSpaceOnUse" id="cc"><path d="M0 32h32V0H0v32z" /></clipPath><clipPath clipPathUnits="userSpaceOnUse" id="cd"><path d="M0 32h32V0H0v32z" /></clipPath></defs><g clip-path="url(#cc)" transform="matrix(.5 0 0 -.5 -.5 16)"><path d="M24 14.65v12.178L18.828 32h-3.656L12 28.828V16.461a8.9 8.9 0 01-4-7.46c0-4.964 4.037-9 9-9s9 4.036 9 9a8.901 8.901 0 01-2 5.65" fill="#f6f6f6" /></g><g clip-path="url(#cd)" transform="matrix(.5 0 0 -.5 -.5 16)"><path d="M18 6a2 2 0 10-.001 3.999A2 2 0 0018 6m2 9.301V16h2v2l-2 2h2v2l-2 2h2v2l-4 4h-2l-2-2V15.301c-2.359-1.127-4-3.514-4-6.301a7 7 0 1114 0c0 2.787-1.641 5.174-4 6.301" fill="#424242" /></g></svg>