<svg viewBox="0 0 16 16" xmlns="http://www.w3.org/2000/svg" width="24" height="24"><defs><clipPath clipPathUnits="userSpaceOnUse" id="ce"><path d="M0 32h32V0H0v32z" /></clipPath><clipPath clipPathUnits="userSpaceOnUse" id="cf"><path d="M0 32h32V0H0v32z" /></clipPath><clipPath clipPathUnits="userSpaceOnUse" id="cg"><path d="M0 32h32V0H0v32z" /></clipPath></defs><g clip-path="url(#ce)" transform="matrix(.66667 0 0 -.66667 -2.467 18.667)"><path d="M20.5 18c.953 1.062 1.5 2.461 1.5 4a6 6 0 11-12 0c0-1.539.547-2.938 1.5-4H7V4h18v14h-4.5z" fill="#f6f6f6" /></g><g clip-path="url(#cf)" transform="matrix(.66667 0 0 -.66667 -2.467 18.667)"><path d="M17 9.999a1 1 0 11-2.001 0A1 1 0 0117 10m6 6V6H9v10h4l3-3 3 3h4zm-11 6a4 4 0 008 0 4 4 0 00-8 0" fill="#424242" /></g><g clip-path="url(#cg)" transform="matrix(.66667 0 0 -.66667 -2.467 18.667)"><path d="M16 9a.999.999 0 100 2 1 1 0 000-2" fill="#f0eff1" /></g></svg>