<svg viewBox="0 0 16 16" xmlns="http://www.w3.org/2000/svg" width="24" height="24"><path d="M13.832 13.367H.754V1.161h13.078v12.206z" fill="#f6f6f6" /><path d="M12.089 6.392H9.473V4.648h2.616v1.744zm0 2.616H9.473V7.264h2.616v1.744zm0 2.615H9.473V9.88h2.616v1.743zM8.6 6.392H5.985V4.648h2.616v1.744zm0 2.616H5.985V7.264h2.616v1.744zm0 2.615H5.985V9.88h2.616v1.743zM5.113 6.392H2.498V4.648h2.615v1.744zm0 2.616H2.498V7.264h2.615v1.744zm0 2.615H2.498V9.88h2.615v1.743zm-3.487.872H12.96V2.033H1.626v10.462z" fill="#424242" /><path d="M5.113 9.88H2.498v1.743h2.615V9.88zm3.488 0H5.985v1.743h2.616V9.88zm3.488 0H9.473v1.743h2.616V9.88zM5.113 7.264H2.498v1.744h2.615V7.264zm0-2.616H2.498v1.744h2.615V4.648zm3.488 2.616H5.985v1.744h2.616V7.264zm0-2.616H5.985v1.744h2.616V4.648zm3.488 2.616H9.473v1.744h2.616V7.264zm0-.872H9.473V4.648h2.616v1.744z" fill="#f0eff1" /><path d="M9.453 7.267v1.998H7.457v5.324h5.99v-1.997h1.997V7.267h-5.99z" fill="#f6f6f6" /><path d="M14.113 11.261h-1.33V9.93h-1.998V8.598h3.328v2.663zm-1.997 1.997H8.788v-2.663h3.328v2.663zM10.12 7.933V9.93H8.123v3.993h4.66v-1.996h1.996V7.933h-4.66z" fill="#00539c" /><path d="M10.785 8.598V9.93h1.997v1.33h1.331V8.599h-3.328z" fill="#f0eff1" /><path d="M8.788 13.258h3.328v-2.663H8.788v2.663z" fill="#f0eff1" /></svg>