<svg viewBox="0 0 16 16" xmlns="http://www.w3.org/2000/svg" width="64" height="64"><path d="M8.604 2.02l1.583 1.583-1.32 1.318H7.104l-1.32-1.318 1.583-1.584L5.347 0 1.746 3.603l3.603 3.602 1.055-1.056v1.937H2.71v2.639H.6V16h14.771v-5.275h-2.11V8.086H9.568V6.15l1.055 1.056 3.603-3.602L10.623 0 8.604 2.02z" fill="#f6f6f6" /><path d="M4.293 3.602l1.582 1.583-.527.527-2.11-2.11 2.11-2.11.527.528-1.582 1.582zm7.386 0L10.096 2.02l.527-.528 2.11 2.11-2.11 2.11-.527-.527 1.583-1.583zm2.637 8.177v3.166H9.041v-3.166h2.11v-1.582h-6.33v1.582h2.11v3.166H1.655v-3.166h2.11V9.142h3.693V5.976h1.055v3.166h3.693v2.637h2.11z" fill="#424242" /></svg>