<svg viewBox="0 0 16 16" xmlns="http://www.w3.org/2000/svg" width="64" height="64"><path d="M16 15.5H0V.567h16V15.5z" fill="#f6f6f6" /><path d="M1.067 14.433h13.866v-12.8H1.067z" fill="#424242" /><path d="M5.333 11.197h-3.2v2.133h3.2v-2.133zm4.267 0H6.4v2.133h3.2v-2.133zm4.267 0h-3.2v2.133h3.2v-2.133zm-8.534-3.2h-3.2v2.133h3.2V7.997zm0-3.2h-3.2V6.93h3.2V4.797zm4.267 3.2H6.4v2.133h3.2V7.997zm0-3.2H6.4V6.93h3.2V4.797zm4.267 3.2h-3.2v2.133h3.2V7.997zm0-1.067h-3.2V4.797h3.2V6.93z" fill="#f0eff1" /><path stroke-width="3" stroke-dashoffset=".4" d="M2.133 4.797h11.733v8.533H2.133z" fill="#f0eff1" /><path d="M7.632 10.682l-1.343 1.343-2.963-2.963 2.963-2.964 1.343 1.343" fill="#f6f6f6" /><path d="M4.275 8.959l2.014 2.014.672-.672L5.618 8.96 6.96 7.616l-.672-.671z" fill="#424242" /><path d="M8.368 7.21l1.343-1.343 2.963 2.963-2.963 2.963-1.343-1.342" fill="#f6f6f6" /><path d="M11.725 8.933L9.711 6.919l-.671.671 1.342 1.343-1.342 1.343.671.671z" fill="#424242" /></svg>